<svg width="147" height="45" viewBox="0 0 147 45" fill="none" xmlns="http://www.w3.org/2000/svg">
<rect x="0.5" y="0.5" width="146" height="44" rx="7.5" stroke="#F2C046"/>
<path d="M16.0462 29H18.3857L21.0128 19.8146H21.1151L23.7358 29H26.0753L29.7699 15.9091H27.2195L24.8608 25.5355H24.7457L22.2209 15.9091H19.9006L17.3821 25.5291H17.2607L14.902 15.9091H12.3516L16.0462 29ZM33.1353 29.1982C34.6758 29.1982 35.5962 28.4759 36.0181 27.6513H36.0948V29H38.3192V22.429C38.3192 19.8338 36.2035 19.054 34.3306 19.054C32.266 19.054 30.6808 19.9744 30.1694 21.7642L32.3299 22.071C32.56 21.3999 33.212 20.8246 34.3434 20.8246C35.4173 20.8246 36.0053 21.3743 36.0053 22.3395V22.3778C36.0053 23.0426 35.3086 23.0746 33.5763 23.2599C31.6715 23.4645 29.8498 24.0334 29.8498 26.245C29.8498 28.1754 31.2624 29.1982 33.1353 29.1982ZM33.7362 27.4979C32.771 27.4979 32.0806 27.0568 32.0806 26.2067C32.0806 25.3182 32.854 24.9474 33.8896 24.8004C34.4968 24.7173 35.7113 24.5639 36.0117 24.321V25.478C36.0117 26.571 35.1296 27.4979 33.7362 27.4979ZM45.5487 19.1818H43.6119V16.8295H41.2979V19.1818H39.9045V20.9716H41.2979V26.4304C41.2852 28.2777 42.6275 29.1854 44.3661 29.1342C45.0245 29.1151 45.4783 28.9872 45.7276 28.9041L45.3377 27.0952C45.2099 27.1271 44.9478 27.1847 44.6602 27.1847C44.0785 27.1847 43.6119 26.9801 43.6119 26.0469V20.9716H45.5487V19.1818ZM51.661 29.1918C54.1284 29.1918 55.7008 27.728 55.867 25.6442H53.6554C53.4572 26.6989 52.6966 27.3061 51.6802 27.3061C50.2356 27.3061 49.3024 26.098 49.3024 24.0909C49.3024 22.1094 50.2548 20.9205 51.6802 20.9205C52.7924 20.9205 53.4764 21.6364 53.6554 22.5824H55.867C55.7072 20.4538 54.0453 19.054 51.6483 19.054C48.7718 19.054 46.9565 21.1314 46.9565 24.1293C46.9565 27.1016 48.7271 29.1918 51.661 29.1918ZM60.081 23.2472C60.081 21.8281 60.9631 21.0099 62.2031 21.0099C63.4176 21.0099 64.1335 21.7834 64.1335 23.1065V29H66.4474V22.7486C66.4474 20.3771 65.1051 19.054 63.0661 19.054C61.5575 19.054 60.5987 19.7379 60.1449 20.8501H60.0298V15.9091H57.767V29H60.081V23.2472ZM109.092 15.9091V29H111.368V19.9872H111.489L115.107 28.9616H116.807L120.425 20.0064H120.547V29H122.822V15.9091H119.92L116.034 25.3949H115.88L111.994 15.9091H109.092ZM129.649 29.1918C131.937 29.1918 133.51 28.0732 133.919 26.3665L131.758 26.1236C131.445 26.9545 130.678 27.3892 129.681 27.3892C128.185 27.3892 127.194 26.4048 127.175 24.7237H134.015V24.0142C134.015 20.5689 131.944 19.054 129.527 19.054C126.715 19.054 124.88 21.1186 124.88 24.1484C124.88 27.2294 126.689 29.1918 129.649 29.1918ZM127.181 23.1641C127.252 21.9112 128.179 20.8565 129.559 20.8565C130.889 20.8565 131.784 21.8281 131.797 23.1641H127.181Z" fill="#F2C046"/>
<path d="M82 13L96 22L82 31V13Z" stroke="#F2C046" stroke-width="2" stroke-linecap="round" stroke-linejoin="round"/>
</svg>
